<svg id="Layer_2" enable-background="new 0 0 512 512" height="512" viewBox="0 0 512 512" width="512" xmlns="http://www.w3.org/2000/svg"><g><g><path d="m10 157h492v260h-492z" fill="#6e83b7"/></g><g><path d="m72 317h368v100h-368z" fill="#466089"/></g><g><path d="m72 97h368v60h-368z" fill="#466089"/></g><g><path d="m96 371h320v131h-320z" fill="#edeff1"/></g><g><path d="m116 371h280v111h-280z" fill="#ffe352"/></g><g><path d="m235 321h42v280h-42z" fill="#80d6fb" transform="matrix(0 1 -1 0 717 205)"/></g><g><path d="m96 10h320v147h-320z" fill="#edeff1"/></g><g><circle cx="457" cy="202" fill="#ffb0aa" r="15"/></g><g><circle cx="416" cy="202" fill="#80d6fb" r="15"/></g><g><circle cx="375" cy="202" fill="#466089" r="15"/></g><g><path d="m344 371h-54l-52 69h158z" fill="#75aa40"/></g><g><path d="m256 371h-71l-69 69h209z" fill="#98ca69"/></g></g></svg>