<svg width="553.3537841796875px" height="122.021240234375px" xmlns="http://www.w3.org/2000/svg" viewBox="-26.67689208984376 13.9893798828125 553.3537841796875 122.021240234375" style="background: rgba(0, 0, 0, 0);" preserveAspectRatio="xMidYMid"><defs><filter id="editing-extrusion" x="-100%" y="-100%" width="300%" height="300%"><feFlood result="color1" flood-color="#444"></feFlood><feConvolveMatrix order="8,8" divisor="1" kernelMatrix="1 0 0 0 0 0 0 0 0 1 0 0 0 0 0 0 0 0 1 0 0 0 0 0 0 0 0 1 0 0 0 0 0 0 0 0 1 0 0 0 0 0 0 0 0 1 0 0 0 0 0 0 0 0 1 0 0 0 0 0 0 0 0 1" in="SourceAlpha" result="extrude"></feConvolveMatrix><feComposite in="color1" in2="extrude" result="comp-extrude" operator="in"></feComposite><feOffset dx="4" dy="4" in="comp-extrude" result="offset-extrude"></feOffset><feMerge><feMergeNode in="offset-extrude"></feMergeNode><feMergeNode in="SourceGraphic"></feMergeNode></feMerge></filter></defs><g filter="url(#editing-extrusion)"><g transform="translate(55.024693608284, 104.43218803405762)"><path d="M26.05-29.57L26.05-29.57L26.05-29.57Q27.01-31.49 27.01-33.28L27.01-33.28L27.01-33.28Q27.01-35.07 26.82-36.06L26.82-36.06L26.82-36.06Q26.62-37.06 26.18-37.82L26.18-37.82L26.18-37.82Q25.22-39.49 23.30-39.49L23.30-39.49L23.30-39.49Q20.93-39.49 19.01-37.76L19.01-37.76L19.01-37.76Q16.96-35.97 16.96-33.15L16.96-33.15L16.96-33.15Q16.96-31.36 18.21-29.98L18.21-29.98L18.21-29.98Q19.46-28.61 21.38-27.33L21.38-27.33L21.38-27.33Q23.30-26.05 25.47-24.77L25.47-24.77L25.47-24.77Q27.65-23.49 29.57-21.95L29.57-21.95L29.57-21.95Q33.98-18.43 33.98-13.70L33.98-13.70L33.98-13.70Q33.98-10.50 32.29-7.78L32.29-7.78L32.29-7.78Q30.59-5.06 27.78-3.07L27.78-3.07L27.78-3.07Q21.63 1.28 13.50 1.28L13.50 1.28L13.50 1.28Q6.91 1.28 3.52-0.86L3.52-0.86L3.52-0.86Q0.13-3.01 0.13-6.27L0.13-6.27L0.13-6.27Q0.13-12.10 4.67-13.57L4.67-13.57L4.67-13.57Q5.95-14.02 7.90-14.02L7.90-14.02L7.90-14.02Q9.86-14.02 12.10-13.18L12.10-13.18L12.10-13.18Q11.07-10.56 11.07-8.19L11.07-8.19L11.07-8.19Q11.07-3.07 14.72-3.07L14.72-3.07L14.72-3.07Q17.09-3.07 19.04-4.80L19.04-4.80L19.04-4.80Q20.99-6.53 20.99-8.48L20.99-8.48L20.99-8.48Q20.99-10.43 19.74-11.84L19.74-11.84L19.74-11.84Q18.50-13.25 16.64-14.37L16.64-14.37L16.64-14.37Q14.78-15.49 12.64-16.58L12.64-16.58L12.64-16.58Q10.50-17.66 8.64-19.20L8.64-19.20L8.64-19.20Q4.29-22.72 4.29-28.35L4.29-28.35L4.29-28.35Q4.29-32 6.08-34.85L6.08-34.85L6.08-34.85Q7.87-37.70 10.75-39.62L10.75-39.62L10.75-39.62Q16.51-43.52 23.58-43.52L23.58-43.52L23.58-43.52Q30.66-43.52 34.08-41.41L34.08-41.41L34.08-41.41Q37.50-39.30 37.50-35.71L37.50-35.71L37.50-35.71Q37.50-32.58 35.07-30.59L35.07-30.59L35.07-30.59Q32.96-28.93 30.40-28.93L30.40-28.93L30.40-28.93Q27.84-28.93 26.05-29.57ZM41.63-1.92L41.63-1.92L41.63-1.92Q40.13-3.58 39.46-6.21L39.46-6.21L39.46-6.21Q38.78-8.83 38.78-13.12L38.78-13.12L38.78-13.12Q38.78-17.41 40.26-21.31L40.26-21.31L40.26-21.31Q41.73-25.22 44.42-28.03L44.42-28.03L44.42-28.03Q49.92-33.92 59.01-33.92L59.01-33.92L59.01-33.92Q62.27-33.92 64.64-32.83L64.64-32.83L75.58-33.92L70.85-8.96L70.85-8.96Q70.66-8.19 70.66-6.78L70.66-6.78L70.66-6.78Q70.66-5.38 71.52-4.48L71.52-4.48L71.52-4.48Q72.38-3.58 73.66-3.46L73.66-3.46L73.66-3.46Q73.02-1.28 70.69 0L70.69 0L70.69 0Q68.35 1.28 65.73 1.28L65.73 1.28L65.73 1.28Q63.10 1.28 61.34 0.29L61.34 0.29L61.34 0.29Q59.58-0.70 59.07-2.37L59.07-2.37L59.07-2.37Q58.05-0.77 55.87 0.26L55.87 0.26L55.87 0.26Q53.70 1.28 50.78 1.28L50.78 1.28L50.78 1.28Q47.87 1.28 45.50 0.51L45.50 0.51L45.50 0.51Q43.14-0.26 41.63-1.92ZM55.14-27.90L55.14-27.90L55.14-27.90Q54.40-26.75 53.76-24.80L53.76-24.80L53.76-24.80Q53.12-22.85 52.06-17.63L52.06-17.63L52.06-17.63Q51.01-12.42 51.01-8.70L51.01-8.70L51.01-8.70Q51.01-4.99 51.58-3.90L51.58-3.90L51.58-3.90Q52.16-2.82 53.18-2.82L53.18-2.82L53.18-2.82Q55.23-2.82 56.74-4.77L56.74-4.77L56.74-4.77Q58.24-6.72 58.82-10.18L58.82-10.18L62.21-28.93L62.21-28.93Q60.86-30.08 59.30-30.08L59.30-30.08L59.30-30.08Q57.73-30.08 56.80-29.57L56.80-29.57L56.80-29.57Q55.87-29.06 55.14-27.90ZM94.34-3.52L94.34-3.52L94.34-3.52Q92.35 1.28 86.02 1.28L86.02 1.28L86.02 1.28Q82.82 1.28 80.77-0.96L80.77-0.96L80.77-0.96Q79.10-2.82 79.10-4.93L79.10-4.93L79.10-4.93Q79.10-9.73 81.34-20.22L81.34-20.22L86.02-44.80L99.01-46.08L92.80-13.70L92.80-13.70Q91.71-8.96 91.71-7.30L91.71-7.30L91.71-7.30Q91.71-3.65 94.34-3.52ZM102.56-1.92L102.56-1.92L102.56-1.92Q101.06-3.58 100.38-6.21L100.38-6.21L100.38-6.21Q99.71-8.83 99.71-13.12L99.71-13.12L99.71-13.12Q99.71-17.41 101.18-21.31L101.18-21.31L101.18-21.31Q102.66-25.22 105.34-28.03L105.34-28.03L105.34-28.03Q110.85-33.92 119.94-33.92L119.94-33.92L119.94-33.92Q123.20-33.92 125.57-32.83L125.57-32.83L136.51-33.92L131.78-8.96L131.78-8.96Q131.58-8.19 131.58-6.78L131.58-6.78L131.58-6.78Q131.58-5.38 132.45-4.48L132.45-4.48L132.45-4.48Q133.31-3.58 134.59-3.46L134.59-3.46L134.59-3.46Q133.95-1.28 131.62 0L131.62 0L131.62 0Q129.28 1.28 126.66 1.28L126.66 1.28L126.66 1.28Q124.03 1.28 122.27 0.29L122.27 0.29L122.27 0.29Q120.51-0.70 120-2.37L120-2.37L120-2.37Q118.98-0.77 116.80 0.26L116.80 0.26L116.80 0.26Q114.62 1.28 111.71 1.28L111.71 1.28L111.71 1.28Q108.80 1.28 106.43 0.51L106.43 0.51L106.43 0.51Q104.06-0.26 102.56-1.92ZM116.06-27.90L116.06-27.90L116.06-27.90Q115.33-26.75 114.69-24.80L114.69-24.80L114.69-24.80Q114.05-22.85 112.99-17.63L112.99-17.63L112.99-17.63Q111.94-12.42 111.94-8.70L111.94-8.70L111.94-8.70Q111.94-4.99 112.51-3.90L112.51-3.90L112.51-3.90Q113.09-2.82 114.11-2.82L114.11-2.82L114.11-2.82Q116.16-2.82 117.66-4.77L117.66-4.77L117.66-4.77Q119.17-6.72 119.74-10.18L119.74-10.18L123.14-28.93L123.14-28.93Q121.79-30.08 120.22-30.08L120.22-30.08L120.22-30.08Q118.66-30.08 117.73-29.57L117.73-29.57L117.73-29.57Q116.80-29.06 116.06-27.90ZM178.11-29.57L178.11-29.57L178.11-29.57Q179.07-31.49 179.07-33.28L179.07-33.28L179.07-33.28Q179.07-35.07 178.88-36.06L178.88-36.06L178.88-36.06Q178.69-37.06 178.24-37.82L178.24-37.82L178.24-37.82Q177.28-39.49 175.36-39.49L175.36-39.49L175.36-39.49Q172.99-39.49 171.07-37.76L171.07-37.76L171.07-37.76Q169.02-35.97 169.02-33.15L169.02-33.15L169.02-33.15Q169.02-31.36 170.27-29.98L170.27-29.98L170.27-29.98Q171.52-28.61 173.44-27.33L173.44-27.33L173.44-27.33Q175.36-26.05 177.54-24.77L177.54-24.77L177.54-24.77Q179.71-23.49 181.63-21.95L181.63-21.95L181.63-21.95Q186.05-18.43 186.05-13.70L186.05-13.70L186.05-13.70Q186.05-10.50 184.35-7.78L184.35-7.78L184.35-7.78Q182.66-5.06 179.84-3.07L179.84-3.07L179.84-3.07Q173.70 1.28 165.57 1.28L165.57 1.28L165.57 1.28Q158.98 1.28 155.58-0.86L155.58-0.86L155.58-0.86Q152.19-3.01 152.19-6.27L152.19-6.27L152.19-6.27Q152.19-12.10 156.74-13.57L156.74-13.57L156.74-13.57Q158.02-14.02 159.97-14.02L159.97-14.02L159.97-14.02Q161.92-14.02 164.16-13.18L164.16-13.18L164.16-13.18Q163.14-10.56 163.14-8.19L163.14-8.19L163.14-8.19Q163.14-3.07 166.78-3.07L166.78-3.07L166.78-3.07Q169.15-3.07 171.10-4.80L171.10-4.80L171.10-4.80Q173.06-6.53 173.06-8.48L173.06-8.48L173.06-8.48Q173.06-10.43 171.81-11.84L171.81-11.84L171.81-11.84Q170.56-13.25 168.70-14.37L168.70-14.37L168.70-14.37Q166.85-15.49 164.70-16.58L164.70-16.58L164.70-16.58Q162.56-17.66 160.70-19.20L160.70-19.20L160.70-19.20Q156.35-22.72 156.35-28.35L156.35-28.35L156.35-28.35Q156.35-32 158.14-34.85L158.14-34.85L158.14-34.85Q159.94-37.70 162.82-39.62L162.82-39.62L162.82-39.62Q168.58-43.52 175.65-43.52L175.65-43.52L175.65-43.52Q182.72-43.52 186.14-41.41L186.14-41.41L186.14-41.41Q189.57-39.30 189.57-35.71L189.57-35.71L189.57-35.71Q189.57-32.58 187.14-30.59L187.14-30.59L187.14-30.59Q185.02-28.93 182.46-28.93L182.46-28.93L182.46-28.93Q179.90-28.93 178.11-29.57ZM191.94-6.40L191.94-6.40L191.94-6.40Q191.94-8.13 192.83-12.48L192.83-12.48L196.22-29.76L192.45-29.76L192.70-31.68L192.70-31.68Q200.38-33.98 207.81-39.62L207.81-39.62L210.88-39.62L209.34-32.64L214.34-32.64L213.76-29.76L208.83-29.76L205.57-12.48L205.57-12.48Q204.74-8.51 204.74-7.17L204.74-7.17L204.74-7.17Q204.74-4.10 207.42-3.46L207.42-3.46L207.42-3.46Q206.78-1.28 204.48 0L204.48 0L204.48 0Q202.18 1.28 198.91 1.28L198.91 1.28L198.91 1.28Q195.65 1.28 193.79-0.77L193.79-0.77L193.79-0.77Q191.94-2.82 191.94-6.40ZM216.54-1.92L216.54-1.92L216.54-1.92Q215.04-3.58 214.37-6.21L214.37-6.21L214.37-6.21Q213.70-8.83 213.70-13.12L213.70-13.12L213.70-13.12Q213.70-17.41 215.17-21.31L215.17-21.31L215.17-21.31Q216.64-25.22 219.33-28.03L219.33-28.03L219.33-28.03Q224.83-33.92 233.92-33.92L233.92-33.92L233.92-33.92Q237.18-33.92 239.55-32.83L239.55-32.83L250.50-33.92L245.76-8.96L245.76-8.96Q245.57-8.19 245.57-6.78L245.57-6.78L245.57-6.78Q245.57-5.38 246.43-4.48L246.43-4.48L246.43-4.48Q247.30-3.58 248.58-3.46L248.58-3.46L248.58-3.46Q247.94-1.28 245.60 0L245.60 0L245.60 0Q243.26 1.28 240.64 1.28L240.64 1.28L240.64 1.28Q238.02 1.28 236.26 0.29L236.26 0.29L236.26 0.29Q234.50-0.70 233.98-2.37L233.98-2.37L233.98-2.37Q232.96-0.77 230.78 0.26L230.78 0.26L230.78 0.26Q228.61 1.28 225.70 1.28L225.70 1.28L225.70 1.28Q222.78 1.28 220.42 0.51L220.42 0.51L220.42 0.51Q218.05-0.26 216.54-1.92ZM230.05-27.90L230.05-27.90L230.05-27.90Q229.31-26.75 228.67-24.80L228.67-24.80L228.67-24.80Q228.03-22.85 226.98-17.63L226.98-17.63L226.98-17.63Q225.92-12.42 225.92-8.70L225.92-8.70L225.92-8.70Q225.92-4.99 226.50-3.90L226.50-3.90L226.50-3.90Q227.07-2.82 228.10-2.82L228.10-2.82L228.10-2.82Q230.14-2.82 231.65-4.77L231.65-4.77L231.65-4.77Q233.15-6.72 233.73-10.18L233.73-10.18L237.12-28.93L237.12-28.93Q235.78-30.08 234.21-30.08L234.21-30.08L234.21-30.08Q232.64-30.08 231.71-29.57L231.71-29.57L231.71-29.57Q230.78-29.06 230.05-27.90ZM300.03 1.28L300.03 1.28L300.03 1.28Q292.29 1.28 292.29-4.74L292.29-4.74L292.29-4.74Q292.29-7.36 293.41-12.45L293.41-12.45L293.41-12.45Q294.53-17.54 294.91-19.58L294.91-19.58L294.91-19.58Q295.81-24.26 295.81-25.73L295.81-25.73L295.81-25.73Q295.81-28.99 293.38-28.99L293.38-28.99L293.38-28.99Q291.78-28.99 290.24-26.78L290.24-26.78L290.24-26.78Q288.70-24.58 288-20.16L288-20.16L284.03 0L271.55 1.28L275.01-16.13L275.01-16.13Q275.58-19.01 276.10-22.27L276.10-22.27L276.10-22.27Q276.61-25.54 276.61-26.05L276.61-26.05L276.61-26.05Q276.61-28.99 274.43-28.99L274.43-28.99L274.43-28.99Q272.96-28.99 271.36-26.82L271.36-26.82L271.36-26.82Q269.76-24.64 268.86-20.16L268.86-20.16L264.96 0L252.35 1.28L259.07-32.64L269.50-33.92L268.42-27.46L268.42-27.46Q270.08-30.91 273.15-32.42L273.15-32.42L273.15-32.42Q276.22-33.92 281.02-33.92L281.02-33.92L281.02-33.92Q283.78-33.92 285.57-32.58L285.57-32.58L285.57-32.58Q287.36-31.23 287.94-29.06L287.94-29.06L287.94-29.06Q289.02-31.30 291.81-32.61L291.81-32.61L291.81-32.61Q294.59-33.92 298.02-33.92L298.02-33.92L298.02-33.92Q301.44-33.92 303.14-33.18L303.14-33.18L303.14-33.18Q304.83-32.45 305.86-31.23L305.86-31.23L305.86-31.23Q307.58-28.99 307.58-24.90L307.58-24.90L307.58-24.90Q307.58-20.86 305.86-12.48L305.86-12.48L305.86-12.48Q304.96-8.38 304.96-6.88L304.96-6.88L304.96-6.88Q304.96-5.38 305.82-4.48L305.82-4.48L305.82-4.48Q306.69-3.58 307.97-3.46L307.97-3.46L307.97-3.46Q307.33-1.28 305.12 0L305.12 0L305.12 0Q302.91 1.28 300.03 1.28ZM342.72-4.38L342.72-4.38L342.72-4.38Q340.03-1.66 336.35-0.19L336.35-0.19L336.35-0.19Q332.67 1.28 329.02 1.28L329.02 1.28L329.02 1.28Q325.38 1.28 324.10 0.64L324.10 0.64L322.11 11.52L309.12 12.80L317.95-32.64L328.38-33.73L327.55-29.31L327.55-29.31Q330.24-33.86 335.81-33.86L335.81-33.86L335.81-33.86Q342.08-33.86 345.41-29.82L345.41-29.82L345.41-29.82Q348.35-26.18 348.35-20.61L348.35-20.61L348.35-20.61Q348.35-15.04 346.88-11.07L346.88-11.07L346.88-11.07Q345.41-7.10 342.72-4.38ZM328.26-22.34L324.86-3.58L324.86-3.58Q326.21-2.43 327.87-2.43L327.87-2.43L327.87-2.43Q329.54-2.43 330.50-3.07L330.50-3.07L330.50-3.07Q331.46-3.71 332.16-4.99L332.16-4.99L332.16-4.99Q334.08-8.45 335.62-18.94L335.62-18.94L335.62-18.94Q336.06-22.02 336.06-25.02L336.06-25.02L336.06-25.02Q336.06-28.03 335.39-28.99L335.39-28.99L335.39-28.99Q334.72-29.95 333.44-29.95L333.44-29.95L333.44-29.95Q329.54-29.95 328.26-22.34L328.26-22.34ZM354.98-1.92L354.98-1.92L354.98-1.92Q353.47-3.58 352.80-6.21L352.80-6.21L352.80-6.21Q352.13-8.83 352.13-13.12L352.13-13.12L352.13-13.12Q352.13-17.41 353.60-21.31L353.60-21.31L353.60-21.31Q355.07-25.22 357.76-28.03L357.76-28.03L357.76-28.03Q363.26-33.92 372.35-33.92L372.35-33.92L372.35-33.92Q375.62-33.92 377.98-32.83L377.98-32.83L388.93-33.92L384.19-8.96L384.19-8.96Q384-8.19 384-6.78L384-6.78L384-6.78Q384-5.38 384.86-4.48L384.86-4.48L384.86-4.48Q385.73-3.58 387.01-3.46L387.01-3.46L387.01-3.46Q386.37-1.28 384.03 0L384.03 0L384.03 0Q381.70 1.28 379.07 1.28L379.07 1.28L379.07 1.28Q376.45 1.28 374.69 0.29L374.69 0.29L374.69 0.29Q372.93-0.70 372.42-2.37L372.42-2.37L372.42-2.37Q371.39-0.77 369.22 0.26L369.22 0.26L369.22 0.26Q367.04 1.28 364.13 1.28L364.13 1.28L364.13 1.28Q361.22 1.28 358.85 0.51L358.85 0.51L358.85 0.51Q356.48-0.26 354.98-1.92ZM368.48-27.90L368.48-27.90L368.48-27.90Q367.74-26.75 367.10-24.80L367.10-24.80L367.10-24.80Q366.46-22.85 365.41-17.63L365.41-17.63L365.41-17.63Q364.35-12.42 364.35-8.70L364.35-8.70L364.35-8.70Q364.35-4.99 364.93-3.90L364.93-3.90L364.93-3.90Q365.50-2.82 366.53-2.82L366.53-2.82L366.53-2.82Q368.58-2.82 370.08-4.77L370.08-4.77L370.08-4.77Q371.58-6.72 372.16-10.18L372.16-10.18L375.55-28.93L375.55-28.93Q374.21-30.08 372.64-30.08L372.64-30.08L372.64-30.08Q371.07-30.08 370.14-29.57L370.14-29.57L370.14-29.57Q369.22-29.06 368.48-27.90Z" fill="#ccc"></path></g></g><style>text {
  font-size: 64px;
  font-family: Arial Black;
  dominant-baseline: central;
  text-anchor: middle;
}</style></svg>